<?xml version="1.0" encoding="UTF-8" standalone="no"?>
<!-- License: Apache. Made by googlefonts: https://github.com/googlefonts/noto-emoji -->

<svg
   width="674.28662"
   height="755.72003"
   viewBox="0 0 107.88586 120.91521"
   aria-hidden="true"
   role="img"
   class="iconify iconify--noto"
   preserveAspectRatio="xMidYMid"
   version="1.1"
   id="svg6"
   sodipodi:docname="google-noto-emoji-rainbow.svg"
   inkscape:export-filename="google-noto-emoji-rainbow-rorate-180.png"
   inkscape:export-xdpi="96"
   inkscape:export-ydpi="96"
   xmlns:inkscape="http://www.inkscape.org/namespaces/inkscape"
   xmlns:sodipodi="http://sodipodi.sourceforge.net/DTD/sodipodi-0.dtd"
   xmlns="http://www.w3.org/2000/svg"
   xmlns:svg="http://www.w3.org/2000/svg">
  <defs
     id="defs6" />
  <sodipodi:namedview
     id="namedview6"
     pagecolor="#ffffff"
     bordercolor="#000000"
     borderopacity="0.25"
     inkscape:showpageshadow="2"
     inkscape:pageopacity="0.0"
     inkscape:pagecheckerboard="0"
     inkscape:deskcolor="#d1d1d1" />
  <path
     d="M 89.134571,11.713842 94.924567,0.0738423 c 0,0 11.200003,-0.25 11.840003,0.17 0.64,0.42 7.98,46.2499997 -25.339999,82.9799997 -35.24,38.870008 -79.5200027,38.590008 -80.58000265,37.310008 -1.0600003,-1.27 -0.8000003,-16.81 -0.8000003,-16.81 z"
     fill="#ff5117"
     id="path1" />
  <path
     d="m 46.734571,96.123842 c 21.88,-12.37 38.4,-31.09 46.049996,-60.38 3.64,-13.93 2.27,-35.6499997 2.27,-35.6499997 H 82.134571 l -38.43,56.4199997 -43.66000295,40.920004 v 11.960004 c 0,0 26.12000295,-1.63 46.69000295,-13.270008 z"
     fill="#ff8e00"
     id="path2" />
  <path
     d="m 73.494571,49.413842 c 10.55,-20.32 8.66,-49.3199997 8.66,-49.3199997 l -12.61,0.01 -43.07,57.2199997 -26.44000295,27.19 0.02,12.910004 c 0,0 15.06999995,0.14 38.53000295,-11.220004 18.84,-9.11 29.17,-25.74 34.91,-36.79 z"
     fill="#f9d81e"
     id="path3" />
  <path
     d="m 52.044571,59.603842 c 21.87,-27.33 17.73,-59.4999997 17.73,-59.4999997 h -14.03 l -23.96,43.4699997 -31.75000295,26.33 0.01,14.74 c 0,0 32.46000295,-0.61 52.00000295,-25.04 z"
     fill="#97cc37"
     id="path4" />
  <path
     d="m 40.584571,53.453842 c 21.82,-20.95 16.97,-53.3499997 16.97,-53.3499997 h -11.26 l -16.78,42.0599997 -29.48000295,15.43 0.01,14.55 c 0,0 19.29000295,1.7 40.54000295,-18.69 z"
     fill="#00c0e9"
     id="path5" />
  <path
     d="m 0.48456835,49.613842 c -0.6700003,1.05 -0.4500003,12 -0.4500003,12 0,0 18.25000295,0.33 33.63000295,-17 15.35,-17.3 13.14,-44.5099997 13.14,-44.5099997 0,0 -10.52,-0.32 -10.95,0.53 -0.86,1.7 2.91,21.7299997 -9.64,35.8599997 -13.000003,14.63 -25.36000265,12.56 -25.73000265,13.12 z"
     fill="#8177fa"
     id="path6" />
</svg>
